<mxfile host="app.diagrams.net" modified="2024-06-28T05:53:09.403Z" agent="Mozilla/5.0 (Windows NT 10.0; Win64; x64) AppleWebKit/537.36 (KHTML, like Gecko) Chrome/126.0.0.0 Safari/537.36 Edg/126.0.0.0" version="24.6.4" etag="Dc9O7rb8gBxm1hZ5HfiX" type="github">
  <diagram name="第 1 页" id="J72kAiGWMZMcLtM9Q9JK">
    <mxGraphModel>
      <root>
        <mxCell id="0" />
        <mxCell id="1" parent="0" />
      </root>
    </mxGraphModel>
  </diagram>
</mxfile>
